<svg width="25" height="25" viewBox="0 0 15 15" fill="none" xmlns="http://www.w3.org/2000/svg">
<path d="M6.6135 2.21737C8.1135 4.04347 8.99987 4.49999 11.1135 4.49999C13.4317 4.56521 13.6362 4.69565 13.6362 6.52174C13.6362 7.56522 13.9771 8.47827 14.318 8.47827C14.7271 8.47827 14.9999 7.36957 14.9999 6C14.9999 2.28259 12.2726 -2.8044e-05 7.90896 -2.8044e-05H4.63623L6.6135 2.21737Z" fill="#00BA78"/>
<path d="M5.18182 3.13032C4.97728 3.45641 5.59091 4.56511 6.47728 5.47816C7.77273 6.84773 8.72727 7.17382 10.3636 7.04339C13.3636 6.78251 13.7727 5.21729 10.8409 5.21729C9.54545 5.21729 7.97727 4.69555 7.09091 3.84772C6.27273 3.13032 5.38637 2.80424 5.18182 3.13032Z" fill="#00BA78"/>
<path d="M0 8.47834V13.0436H6.47727H12.9545L12.8864 10.2392C12.75 8.3479 12.6818 8.02182 12.4773 9.26095C12.2045 11.087 12.2045 11.087 6.40909 11.087H0.681818V7.89138C0.681818 4.89137 0.818182 4.6305 2.59091 4.36963C4.29546 4.10875 4.29546 4.10875 2.25 3.97832L0 3.9131V8.47834Z" fill="#00BA78"/>
<path d="M13.6365 10.4347C13.6365 10.7608 13.9774 11.0869 14.3183 11.0869C14.7274 11.0869 15.0001 10.7608 15.0001 10.4347C15.0001 10.0434 14.7274 9.78256 14.3183 9.78256C13.9774 9.78256 13.6365 10.0434 13.6365 10.4347Z" fill="#00BA78"/>
<path d="M4.43185 14.3478C4.15912 14.7391 4.9773 15 6.47729 15C7.97729 15 8.79547 14.7391 8.52274 14.3478C7.97729 13.5 4.9773 13.5 4.43185 14.3478Z" fill="#00BA78"/>
</svg>
